<svg width="24" height="24" viewBox="0 0 24 24" fill="none" xmlns="http://www.w3.org/2000/svg">
<path fill-rule="evenodd" clip-rule="evenodd" d="M2 6C2 4.93913 2.42143 3.92172 3.17157 3.17157C3.92172 2.42143 4.93913 2 6 2H18C19.0609 2 20.0783 2.42143 20.8284 3.17157C21.5786 3.92172 22 4.93913 22 6V18C22 19.0609 21.5786 20.0783 20.8284 20.8284C20.0783 21.5786 19.0609 22 18 22H6C4.93913 22 3.92172 21.5786 3.17157 20.8284C2.42143 20.0783 2 19.0609 2 18V6ZM6 4C5.46957 4 4.96086 4.21071 4.58579 4.58579C4.21071 4.96086 4 5.46957 4 6V18C4 18.5304 4.21071 19.0391 4.58579 19.4142C4.96086 19.7893 5.46957 20 6 20H12V13H11C10.7348 13 10.4804 12.8946 10.2929 12.7071C10.1054 12.5196 10 12.2652 10 12C10 11.7348 10.1054 11.4804 10.2929 11.2929C10.4804 11.1054 10.7348 11 11 11H12V9.5C12 8.57174 12.3687 7.6815 13.0251 7.02513C13.6815 6.36875 14.5717 6 15.5 6H16.1C16.3652 6 16.6196 6.10536 16.8071 6.29289C16.9946 6.48043 17.1 6.73478 17.1 7C17.1 7.26522 16.9946 7.51957 16.8071 7.70711C16.6196 7.89464 16.3652 8 16.1 8H15.5C15.303 8 15.108 8.0388 14.926 8.11418C14.744 8.18956 14.5786 8.30005 14.4393 8.43934C14.3001 8.57863 14.1896 8.74399 14.1142 8.92597C14.0388 9.10796 14 9.30302 14 9.5V11H16.1C16.3652 11 16.6196 11.1054 16.8071 11.2929C16.9946 11.4804 17.1 11.7348 17.1 12C17.1 12.2652 16.9946 12.5196 16.8071 12.7071C16.6196 12.8946 16.3652 13 16.1 13H14V20H18C18.5304 20 19.0391 19.7893 19.4142 19.4142C19.7893 19.0391 20 18.5304 20 18V6C20 5.46957 19.7893 4.96086 19.4142 4.58579C19.0391 4.21071 18.5304 4 18 4H6Z" fill="#6C63FF"/>
</svg>
