<svg width="482" height="401" viewBox="0 0 482 401" fill="none" xmlns="http://www.w3.org/2000/svg">
<path d="M432.06 108.23H50.3199V363.58H432.06V108.23Z" fill="#DBDBDB"/>
<path d="M429.29 111.35H53.1V360.47H429.29V111.35Z" fill="#263238"/>
<path d="M481.77 382.73H0.599976V400.26H481.77V382.73Z" fill="#C7C7C7"/>
<path d="M0.599976 382.73L50.32 363.58H432.06L481.78 382.73H0.599976Z" fill="#DBDBDB"/>
<path d="M54.7599 375.94L86.85 363.58H395.53L427.62 375.94H54.7599Z" fill="#263238"/>
<path d="M408.03 130.27H74.36V341.54H408.03V130.27Z" fill="white"/>
<path d="M408.02 130.27H74.0699V138.4H408.02V130.27Z" fill="#455A64"/>
<path d="M78.52 136.36C79.6356 136.36 80.54 135.456 80.54 134.34C80.54 133.224 79.6356 132.32 78.52 132.32C77.4044 132.32 76.5 133.224 76.5 134.34C76.5 135.456 77.4044 136.36 78.52 136.36Z" fill="#C7C7C7"/>
<path d="M86.75 136.36C87.8656 136.36 88.77 135.456 88.77 134.34C88.77 133.224 87.8656 132.32 86.75 132.32C85.6344 132.32 84.73 133.224 84.73 134.34C84.73 135.456 85.6344 136.36 86.75 136.36Z" fill="white"/>
<path d="M94.98 136.36C96.0956 136.36 97 135.456 97 134.34C97 133.224 96.0956 132.32 94.98 132.32C93.8643 132.32 92.96 133.224 92.96 134.34C92.96 135.456 93.8643 136.36 94.98 136.36Z" fill="#00CDA6"/>
<path d="M139.87 267.35H89.15V302.05H139.87V267.35Z" fill="#EBEBEB"/>
<path d="M89.15 269.89C91.33 271.12 93.47 272.42 95.63 273.68C97.79 274.94 99.92 276.25 102.05 277.56C106.33 280.16 110.56 282.82 114.8 285.48H114.23C118.46 282.82 122.7 280.16 126.97 277.56C129.1 276.25 131.25 274.96 133.39 273.68C135.53 272.4 137.69 271.12 139.87 269.89C137.82 271.33 135.74 272.71 133.67 274.12C131.6 275.53 129.51 276.89 127.41 278.26C123.23 281.01 119.02 283.7 114.8 286.38L114.51 286.56L114.23 286.38C110.01 283.7 105.79 281.01 101.61 278.26C99.5166 276.887 97.43 275.507 95.35 274.12C93.29 272.71 91.2 271.33 89.15 269.89Z" fill="white"/>
<path d="M89.28 295.88C90.81 294.54 92.41 293.28 94.03 292.05C95.65 290.82 97.3 289.64 98.96 288.46C100.62 287.28 102.31 286.16 104.02 285.07C105.73 283.98 107.46 282.9 109.25 281.92C107.72 283.26 106.12 284.52 104.5 285.75C102.88 286.98 101.23 288.16 99.57 289.34C97.91 290.52 96.22 291.63 94.51 292.73C92.8 293.83 91.07 294.9 89.28 295.88Z" fill="white"/>
<path d="M139.75 295.88C137.96 294.88 136.23 293.83 134.52 292.73C132.81 291.63 131.13 290.49 129.46 289.34C127.79 288.19 126.14 286.98 124.53 285.75C122.92 284.52 121.31 283.26 119.77 281.92C121.56 282.92 123.29 283.97 125 285.07C126.71 286.17 128.39 287.31 130.06 288.46C131.73 289.61 133.38 290.82 134.99 292.05C136.6 293.28 138.21 294.54 139.75 295.88Z" fill="white"/>
<path d="M143.08 309.89L146.3 317.68L143.08 319.01L139.84 311.17L134.52 315.3V293.37L149.87 308.88L143.08 309.89Z" fill="#263238"/>
<path d="M134.52 291C134.253 290.287 134.253 289.502 134.52 288.79C134.773 289.505 134.773 290.285 134.52 291V291Z" fill="#263238"/>
<path d="M132.62 291.76C132.274 291.609 131.962 291.392 131.7 291.12C131.429 290.858 131.212 290.545 131.06 290.2C131.744 290.524 132.296 291.075 132.62 291.76V291.76Z" fill="#263238"/>
<path d="M131.83 293.66C131.48 293.799 131.106 293.867 130.73 293.86C130.354 293.867 129.98 293.799 129.63 293.66C129.98 293.524 130.354 293.459 130.73 293.47C131.106 293.46 131.479 293.525 131.83 293.66V293.66Z" fill="#263238"/>
<path d="M132.62 295.56C132.466 295.904 132.249 296.216 131.98 296.48C131.718 296.752 131.406 296.969 131.06 297.12C131.376 296.43 131.93 295.876 132.62 295.56V295.56Z" fill="#263238"/>
<path d="M137.2 293.66C137.554 293.525 137.931 293.46 138.31 293.47C138.686 293.46 139.059 293.525 139.41 293.66C139.06 293.799 138.686 293.867 138.31 293.86C137.93 293.867 137.553 293.799 137.2 293.66V293.66Z" fill="#263238"/>
<path d="M136.42 291.76C136.568 291.416 136.786 291.106 137.06 290.85C137.319 290.573 137.632 290.352 137.98 290.2C137.828 290.545 137.611 290.858 137.34 291.12C137.078 291.392 136.766 291.609 136.42 291.76V291.76Z" fill="#263238"/>
<path d="M288.89 316.1L251.19 306.42L263.62 258.02L291.61 265.21L298.95 276.93L288.89 316.1Z" fill="#EBEBEB"/>
<path d="M291.61 265.21L298.95 276.93L289.24 274.43L291.61 265.21Z" fill="#DBDBDB"/>
<path d="M264.88 268.34L285.841 273.722L286.159 272.482L265.199 267.1L264.88 268.34Z" fill="#DBDBDB"/>
<path d="M264.086 271.47L285.046 276.852L285.364 275.612L264.404 270.231L264.086 271.47Z" fill="#DBDBDB"/>
<path d="M263.269 274.608L284.229 279.989L284.548 278.749L263.587 273.368L263.269 274.608Z" fill="#DBDBDB"/>
<path d="M262.467 277.742L293.18 285.628L293.499 284.389L262.785 276.503L262.467 277.742Z" fill="#DBDBDB"/>
<path d="M261.662 280.88L292.376 288.766L292.695 287.526L261.981 279.64L261.662 280.88Z" fill="#DBDBDB"/>
<path d="M260.855 284.02L291.569 291.906L291.888 290.666L261.174 282.78L260.855 284.02Z" fill="#DBDBDB"/>
<path d="M260.041 287.157L290.755 295.043L291.073 293.804L260.36 285.918L260.041 287.157Z" fill="#DBDBDB"/>
<path d="M259.247 290.288L289.96 298.173L290.279 296.934L259.565 289.048L259.247 290.288Z" fill="#DBDBDB"/>
<path d="M258.44 293.435L289.154 301.321L289.472 300.081L258.758 292.195L258.44 293.435Z" fill="#DBDBDB"/>
<path d="M257.635 296.565L288.349 304.451L288.667 303.211L257.954 295.325L257.635 296.565Z" fill="#DBDBDB"/>
<path d="M256.821 299.692L287.535 307.578L287.853 306.339L257.139 298.453L256.821 299.692Z" fill="#DBDBDB"/>
<path d="M256.024 302.842L286.738 310.728L287.056 309.488L256.342 301.602L256.024 302.842Z" fill="#DBDBDB"/>
<path d="M172.53 247.8L221.22 249.6L222.39 217.04L173.7 215.24L172.53 247.8Z" fill="#EBEBEB"/>
<path d="M174.63 245.85L219.27 247.5L220.29 218.99L175.65 217.34L174.63 245.85Z" fill="white"/>
<path d="M179.38 226.38C179.345 227.342 179.596 228.293 180.102 229.112C180.608 229.931 181.346 230.581 182.222 230.98C183.098 231.38 184.073 231.51 185.023 231.354C185.973 231.198 186.855 230.764 187.558 230.106C188.261 229.448 188.752 228.596 188.97 227.659C189.188 226.721 189.123 225.74 188.783 224.839C188.442 223.939 187.842 223.16 187.058 222.601C186.274 222.042 185.342 221.728 184.38 221.7C183.097 221.66 181.85 222.129 180.913 223.007C179.976 223.884 179.424 225.097 179.38 226.38Z" fill="#DBDBDB"/>
<path d="M188.49 246.41L219.24 247.54L204.64 226.13L188.49 246.41Z" fill="#DBDBDB"/>
<path d="M176.43 245.97L201.82 246.91L189.63 232.87L176.43 245.97Z" fill="#EBEBEB"/>
<path d="M154.12 270.97L201.82 261.02L195.13 229.13L147.44 239.07L154.12 270.97Z" fill="#EBEBEB"/>
<path d="M155.69 268.57L199.43 259.45L193.57 231.53L149.83 240.65L155.69 268.57Z" fill="white"/>
<path d="M155.62 248.53C155.816 249.471 156.287 250.332 156.972 251.006C157.658 251.679 158.528 252.134 159.472 252.313C160.416 252.492 161.392 252.388 162.277 252.012C163.162 251.636 163.915 251.007 164.442 250.203C164.969 249.4 165.246 248.458 165.238 247.497C165.229 246.536 164.936 245.599 164.396 244.804C163.855 244.01 163.091 243.393 162.2 243.033C161.309 242.673 160.331 242.585 159.39 242.78C158.129 243.045 157.024 243.798 156.317 244.876C155.61 245.954 155.36 247.268 155.62 248.53Z" fill="#DBDBDB"/>
<path d="M169.28 265.78L199.4 259.5L180.08 242.22L169.28 265.78Z" fill="#DBDBDB"/>
<path d="M157.47 268.25L182.34 263.07L167.13 252.36L157.47 268.25Z" fill="#EBEBEB"/>
<path d="M319.92 268.29H303.79V331.22H319.92V268.29Z" fill="#00CDA6"/>
<path d="M319.92 334.33H303.79V344.69H319.92V334.33Z" fill="#00CDA6"/>
<path d="M319.92 347.8H303.79V354.19H319.92V347.8Z" fill="#00CDA6"/>
<path d="M319.92 357.3H303.79V360.47H319.92V357.3Z" fill="#00CDA6"/>
<path d="M325.29 268.29H298.41L311.85 249.69L325.29 268.29Z" fill="#00CDA6"/>
<path d="M352.02 248.29H335.89V331.22H352.02V248.29Z" fill="#00CDA6"/>
<path d="M352.02 334.33H335.89V344.69H352.02V334.33Z" fill="#00CDA6"/>
<path d="M352.02 347.8H335.89V354.19H352.02V347.8Z" fill="#00CDA6"/>
<path d="M352.02 357.3H335.89V360.47H352.02V357.3Z" fill="#00CDA6"/>
<path d="M357.4 248.29H330.51L343.96 229.69L357.4 248.29Z" fill="#00CDA6"/>
<path d="M384.13 228.29H368V331.22H384.13V228.29Z" fill="#00CDA6"/>
<path d="M384.13 334.33H368V344.69H384.13V334.33Z" fill="#00CDA6"/>
<path d="M384.13 347.8H368V354.19H384.13V347.8Z" fill="#00CDA6"/>
<path d="M384.13 357.3H368V360.47H384.13V357.3Z" fill="#00CDA6"/>
<path d="M389.5 228.29H362.62L376.06 209.69L389.5 228.29Z" fill="#00CDA6"/>
<path d="M416.23 208.29H400.1V331.22H416.23V208.29Z" fill="#00CDA6"/>
<path d="M416.23 334.33H400.1V344.69H416.23V334.33Z" fill="#00CDA6"/>
<path d="M416.23 347.8H400.1V354.19H416.23V347.8Z" fill="#00CDA6"/>
<path d="M416.23 357.3H400.1V360.47H416.23V357.3Z" fill="#00CDA6"/>
<path d="M421.61 208.29H394.73L408.17 189.69L421.61 208.29Z" fill="#00CDA6"/>
<path opacity="0.6" d="M146.85 318.11C146.85 319.512 146.434 320.883 145.655 322.049C144.876 323.215 143.769 324.124 142.473 324.66C141.178 325.197 139.752 325.337 138.377 325.064C137.002 324.79 135.738 324.115 134.747 323.123C133.755 322.132 133.08 320.869 132.806 319.493C132.533 318.118 132.673 316.692 133.21 315.397C133.746 314.101 134.655 312.994 135.821 312.215C136.987 311.436 138.358 311.02 139.76 311.02C141.64 311.02 143.444 311.767 144.773 313.097C146.103 314.426 146.85 316.23 146.85 318.11Z" fill="#00CDA6"/>
<path opacity="0.6" d="M155.48 304.56C155.482 305.245 155.281 305.916 154.901 306.486C154.522 307.057 153.981 307.502 153.349 307.765C152.716 308.028 152.02 308.097 151.347 307.964C150.675 307.831 150.058 307.501 149.573 307.017C149.089 306.532 148.759 305.915 148.626 305.243C148.493 304.57 148.562 303.874 148.825 303.241C149.088 302.609 149.533 302.068 150.104 301.689C150.675 301.31 151.345 301.108 152.03 301.11C152.945 301.11 153.823 301.473 154.47 302.12C155.117 302.767 155.48 303.645 155.48 304.56Z" fill="#00CDA6"/>
<path opacity="0.6" d="M307.25 314.68C307.25 315.364 307.047 316.033 306.667 316.602C306.287 317.171 305.746 317.615 305.114 317.877C304.482 318.139 303.786 318.207 303.115 318.074C302.444 317.94 301.827 317.611 301.343 317.127C300.86 316.643 300.53 316.026 300.396 315.355C300.263 314.684 300.331 313.988 300.593 313.356C300.855 312.724 301.299 312.183 301.868 311.803C302.437 311.423 303.106 311.22 303.79 311.22C304.708 311.22 305.588 311.585 306.237 312.233C306.885 312.882 307.25 313.762 307.25 314.68Z" fill="#00CDA6"/>
<path opacity="0.6" d="M376.48 346.24C376.482 346.925 376.281 347.595 375.902 348.165C375.523 348.735 374.983 349.18 374.351 349.444C373.719 349.707 373.023 349.777 372.351 349.645C371.679 349.512 371.062 349.184 370.577 348.7C370.092 348.217 369.762 347.6 369.627 346.929C369.493 346.257 369.561 345.561 369.822 344.928C370.084 344.295 370.527 343.754 371.097 343.374C371.666 342.993 372.335 342.79 373.02 342.79C373.936 342.79 374.815 343.153 375.463 343.8C376.112 344.447 376.477 345.324 376.48 346.24Z" fill="#00CDA6"/>
<path opacity="0.6" d="M371.18 356.35C371.177 357.442 370.742 358.488 369.97 359.26C369.198 360.032 368.152 360.467 367.06 360.47H110C108.907 360.47 107.859 360.036 107.087 359.263C106.314 358.491 105.88 357.443 105.88 356.35C105.88 355.257 106.314 354.209 107.087 353.437C107.859 352.664 108.907 352.23 110 352.23C110.336 352.229 110.672 352.266 111 352.34C111.001 350.725 111.484 349.147 112.385 347.808C113.287 346.468 114.567 345.427 116.062 344.818C117.558 344.209 119.201 344.058 120.782 344.386C122.363 344.715 123.81 345.506 124.94 346.66H125.02C125.02 346.16 124.94 345.66 124.94 345.14C124.942 342.539 125.605 339.981 126.866 337.706C128.127 335.43 129.945 333.513 132.15 332.132C134.355 330.752 136.874 329.954 139.471 329.814C142.069 329.674 144.659 330.195 147 331.33C147.174 328.847 148.186 326.497 149.868 324.663C151.551 322.83 153.806 321.621 156.264 321.234C158.723 320.848 161.24 321.306 163.404 322.535C165.569 323.764 167.252 325.691 168.18 328C169.563 325.802 171.481 323.992 173.755 322.738C176.029 321.484 178.583 320.827 181.18 320.83C182.167 320.831 183.151 320.925 184.12 321.11C183.91 319.928 183.806 318.73 183.81 317.53C183.808 313.553 184.948 309.66 187.095 306.312C189.242 302.965 192.305 300.304 195.92 298.647C199.535 296.99 203.55 296.407 207.488 296.966C211.425 297.525 215.119 299.203 218.13 301.8C218.475 301.126 218.999 300.56 219.644 300.164C220.29 299.769 221.033 299.56 221.79 299.56C222.332 299.563 222.869 299.672 223.37 299.88L227.23 196.8H249.87L253.73 299.88C254.688 299.471 255.766 299.441 256.745 299.798C257.724 300.155 258.53 300.87 259 301.8C262.011 299.203 265.705 297.525 269.642 296.966C273.58 296.407 277.595 296.99 281.21 298.647C284.825 300.304 287.888 302.965 290.035 306.312C292.182 309.66 293.322 313.553 293.32 317.53C293.324 318.73 293.22 319.928 293.01 321.11C293.976 320.925 294.957 320.832 295.94 320.83C298.537 320.827 301.091 321.484 303.365 322.738C305.639 323.992 307.557 325.802 308.94 328C309.905 325.753 311.592 323.892 313.734 322.711C315.875 321.529 318.349 321.095 320.765 321.477C323.18 321.859 325.4 323.035 327.072 324.82C328.745 326.604 329.775 328.895 330 331.33C332.34 330.187 334.932 329.658 337.533 329.793C340.133 329.927 342.657 330.721 344.867 332.098C347.077 333.476 348.9 335.393 350.165 337.669C351.43 339.946 352.096 342.506 352.1 345.11C352.1 345.62 352.1 346.11 352.02 346.63H352.1C353.23 345.476 354.677 344.685 356.258 344.356C357.839 344.028 359.482 344.179 360.978 344.788C362.473 345.397 363.753 346.438 364.655 347.778C365.556 349.117 366.039 350.695 366.04 352.31C366.368 352.236 366.704 352.199 367.04 352.2C367.585 352.197 368.126 352.303 368.63 352.511C369.134 352.718 369.592 353.024 369.977 353.41C370.362 353.796 370.667 354.255 370.873 354.76C371.08 355.264 371.184 355.805 371.18 356.35V356.35Z" fill="#00CDA6"/>
<path d="M306.01 322.42L300.67 323.4L299.47 329.04L298.28 323.4L292.93 322.41L298.25 321.11L299.47 315.79L300.69 321.11L306.01 322.42Z" fill="#FCFCFC"/>
<path d="M254.02 277.23L248.67 278.22L247.48 283.85L246.29 278.22L240.94 277.23L246.26 275.93L247.48 270.6L248.7 275.93L254.02 277.23Z" fill="#FCFCFC"/>
<path d="M176.34 333.15L173.35 333.7L172.68 336.85L172.02 333.7L169.03 333.14L172 332.42L172.68 329.44L173.36 332.42L176.34 333.15Z" fill="#FCFCFC"/>
<path d="M337.09 342.54L334.1 343.09L333.44 346.24L332.77 343.09L329.78 342.54L332.75 341.81L333.44 338.84L334.12 341.81L337.09 342.54Z" fill="#FCFCFC"/>
<path d="M135.22 353.58L132.24 354.13L131.57 357.28L130.9 354.13L127.91 353.58L130.89 352.85L131.57 349.87L132.25 352.85L135.22 353.58Z" fill="#FCFCFC"/>
<path d="M265.18 350.96L262.19 351.51L261.52 354.66L260.86 351.51L257.87 350.96L260.84 350.23L261.52 347.25L262.2 350.23L265.18 350.96Z" fill="#FCFCFC"/>
<path d="M243.31 268.66L240.32 269.21L239.65 272.36L238.98 269.21L236 268.66L238.97 267.93L239.65 264.96L240.33 267.93L243.31 268.66Z" fill="#FCFCFC"/>
<path d="M344.16 349.35C343.947 349.373 343.749 349.474 343.606 349.634C343.462 349.793 343.383 350 343.383 350.215C343.383 350.43 343.462 350.637 343.606 350.796C343.749 350.956 343.947 351.057 344.16 351.08C344.373 351.057 344.571 350.956 344.714 350.796C344.858 350.637 344.937 350.43 344.937 350.215C344.937 350 344.858 349.793 344.714 349.634C344.571 349.474 344.373 349.373 344.16 349.35V349.35Z" fill="#FCFCFC"/>
<path d="M231.74 257.74C231.527 257.763 231.329 257.864 231.186 258.024C231.042 258.183 230.963 258.39 230.963 258.605C230.963 258.82 231.042 259.027 231.186 259.186C231.329 259.346 231.527 259.447 231.74 259.47C231.953 259.447 232.151 259.346 232.294 259.186C232.438 259.027 232.517 258.82 232.517 258.605C232.517 258.39 232.438 258.183 232.294 258.024C232.151 257.864 231.953 257.763 231.74 257.74V257.74Z" fill="#FCFCFC"/>
<path d="M157.86 353.58C157.647 353.603 157.449 353.704 157.306 353.864C157.162 354.023 157.083 354.23 157.083 354.445C157.083 354.66 157.162 354.867 157.306 355.026C157.449 355.186 157.647 355.287 157.86 355.31C158.073 355.287 158.271 355.186 158.414 355.026C158.558 354.867 158.637 354.66 158.637 354.445C158.637 354.23 158.558 354.023 158.414 353.864C158.271 353.704 158.073 353.603 157.86 353.58V353.58Z" fill="#FCFCFC"/>
<path d="M212.75 341.67C212.519 341.67 212.298 341.762 212.135 341.925C211.972 342.088 211.88 342.309 211.88 342.54C211.88 342.771 211.972 342.992 212.135 343.155C212.298 343.318 212.519 343.41 212.75 343.41C212.981 343.41 213.202 343.318 213.365 343.155C213.528 342.992 213.62 342.771 213.62 342.54C213.62 342.309 213.528 342.088 213.365 341.925C213.202 341.762 212.981 341.67 212.75 341.67V341.67Z" fill="#FCFCFC"/>
<path d="M322.46 333.78C322.298 333.78 322.143 333.844 322.029 333.959C321.914 334.073 321.85 334.228 321.85 334.39C321.85 334.552 321.914 334.707 322.029 334.821C322.143 334.936 322.298 335 322.46 335C322.622 335 322.777 334.936 322.891 334.821C323.006 334.707 323.07 334.552 323.07 334.39C323.07 334.228 323.006 334.073 322.891 333.959C322.777 333.844 322.622 333.78 322.46 333.78Z" fill="#FCFCFC"/>
<path d="M246.76 324.59C246.61 324.609 246.473 324.682 246.373 324.795C246.274 324.909 246.219 325.054 246.219 325.205C246.219 325.356 246.274 325.502 246.373 325.615C246.473 325.728 246.61 325.801 246.76 325.82C246.91 325.801 247.047 325.728 247.147 325.615C247.246 325.502 247.301 325.356 247.301 325.205C247.301 325.054 247.246 324.909 247.147 324.795C247.047 324.682 246.91 324.609 246.76 324.59V324.59Z" fill="#FCFCFC"/>
<path d="M191.34 312.62C191.178 312.62 191.023 312.684 190.909 312.799C190.794 312.913 190.73 313.068 190.73 313.23C190.73 313.392 190.794 313.547 190.909 313.661C191.023 313.776 191.178 313.84 191.34 313.84C191.502 313.84 191.657 313.776 191.771 313.661C191.886 313.547 191.95 313.392 191.95 313.23C191.95 313.068 191.886 312.913 191.771 312.799C191.657 312.684 191.502 312.62 191.34 312.62Z" fill="#FCFCFC"/>
<path d="M286.15 315.12C285.71 315.12 285.288 315.295 284.976 315.606C284.665 315.918 284.49 316.34 284.49 316.78C284.49 317.22 284.665 317.642 284.976 317.954C285.288 318.265 285.71 318.44 286.15 318.44C286.59 318.44 287.012 318.265 287.324 317.954C287.635 317.642 287.81 317.22 287.81 316.78C287.81 316.34 287.635 315.918 287.324 315.606C287.012 315.295 286.59 315.12 286.15 315.12V315.12Z" fill="#FCFCFC"/>
<path d="M199.19 307C198.75 307 198.328 307.175 198.016 307.486C197.705 307.798 197.53 308.22 197.53 308.66C197.53 309.1 197.705 309.522 198.016 309.834C198.328 310.145 198.75 310.32 199.19 310.32C199.63 310.32 200.053 310.145 200.364 309.834C200.675 309.522 200.85 309.1 200.85 308.66C200.85 308.22 200.675 307.798 200.364 307.486C200.053 307.175 199.63 307 199.19 307V307Z" fill="#FCFCFC"/>
<path d="M200 115.32C199.19 115.32 169 129.26 167.19 163.6C165.55 195.16 187.37 225.14 190.19 223.15C193.64 220.72 187.77 201.06 194.48 178.56C196.86 170.56 207.26 163.5 207.26 163.5L200 115.32Z" fill="#00CDA6"/>
<path opacity="0.1" d="M207.27 163.5C204.23 165.669 201.454 168.186 199 171C194.51 161 186.13 142.25 180.71 130.11C189.56 119.88 199.54 115.37 200 115.37L207.27 163.5Z" fill="black"/>
<path d="M276.88 115.38C277.69 115.38 307.88 129.38 309.62 163.7C311.22 195.27 289.35 225.21 286.53 223.22C283.09 220.79 288.98 201.13 282.31 178.62C279.94 170.62 269.55 163.55 269.55 163.55L276.88 115.38Z" fill="#00CDA6"/>
<path opacity="0.1" d="M296.26 130.27C290.79 142.5 282.4 161.27 277.96 171.17C275.469 168.306 272.646 165.748 269.55 163.55L276.88 115.37C277.34 115.37 287.41 119.94 296.26 130.27Z" fill="black"/>
<path d="M261.28 194.31H215.71C215.71 194.31 194.24 155.92 196.78 110.15C198.06 87.3 204.03 64.29 211.22 45.26C221.11 18.97 233.34 0.320021 238.64 0.330021C243.94 0.340021 256.14 19 266 45.26C273.14 64.26 279.08 87.32 280.33 110.17C282.81 155.94 261.28 194.31 261.28 194.31Z" fill="#EBEBEB"/>
<path d="M265.84 104.24C265.838 109.44 264.294 114.523 261.403 118.845C258.512 123.168 254.404 126.536 249.599 128.524C244.794 130.511 239.507 131.029 234.408 130.012C229.308 128.995 224.624 126.488 220.95 122.809C217.275 119.13 214.773 114.444 213.762 109.343C212.751 104.242 213.275 98.956 215.268 94.1531C217.261 89.3501 220.634 85.2462 224.96 82.3603C229.285 79.4743 234.37 77.9361 239.57 77.94C246.541 77.9453 253.224 80.7189 258.15 85.6508C263.077 90.5827 265.843 97.2692 265.84 104.24V104.24Z" fill="#C7C7C7"/>
<path d="M264.91 101.56C264.908 106.76 263.364 111.843 260.473 116.165C257.582 120.488 253.474 123.856 248.669 125.844C243.864 127.831 238.577 128.349 233.478 127.332C228.378 126.315 223.694 123.808 220.02 120.129C216.345 116.45 213.843 111.764 212.832 106.663C211.821 101.562 212.345 96.276 214.338 91.4731C216.331 86.6702 219.704 82.5662 224.03 79.6803C228.355 76.7943 233.44 75.2561 238.64 75.26C245.611 75.2653 252.294 78.0389 257.22 82.9708C262.147 87.9027 264.913 94.5892 264.91 101.56V101.56Z" fill="#00CDA6"/>
<path d="M256.85 101.55C256.85 105.156 255.781 108.68 253.778 111.678C251.775 114.676 248.927 117.013 245.596 118.392C242.265 119.772 238.6 120.133 235.064 119.43C231.527 118.726 228.279 116.99 225.729 114.441C223.18 111.891 221.444 108.643 220.74 105.106C220.037 101.57 220.398 97.9048 221.778 94.5737C223.157 91.2426 225.494 88.3955 228.492 86.3923C231.49 84.3892 235.014 83.32 238.62 83.32C241.014 83.32 243.385 83.7915 245.596 84.7077C247.808 85.6238 249.818 86.9666 251.511 88.6595C253.203 90.3523 254.546 92.3619 255.462 94.5737C256.378 96.7855 256.85 99.156 256.85 101.55Z" fill="white"/>
<path d="M256.86 101.54C256.862 103.801 256.441 106.043 255.62 108.15L245.23 118.54C243.127 119.36 240.888 119.778 238.63 119.77C236.98 119.773 235.338 119.548 233.75 119.1L256.19 96.67C256.633 98.2556 256.858 99.8939 256.86 101.54V101.54Z" fill="#EBEBEB"/>
<path d="M241.3 83.52L220.59 104.22C220.457 103.336 220.39 102.444 220.39 101.55C220.393 98.9317 220.96 96.3447 222.053 93.9653C223.146 91.586 224.739 89.4701 226.723 87.7619C228.708 86.0537 231.037 84.7932 233.552 84.0664C236.068 83.3396 238.71 83.1634 241.3 83.55V83.52Z" fill="#EBEBEB"/>
<path d="M254.58 92.72L229.8 117.49C229.318 117.23 228.85 116.943 228.4 116.63L253.72 91.32C254 91.77 254.3 92.24 254.58 92.72Z" fill="#EBEBEB"/>
<path d="M266 45.26H211.21C221.1 18.97 233.33 0.320021 238.63 0.330021C243.93 0.340021 256.14 19 266 45.26Z" fill="#00CDA6"/>
<path d="M220.65 39.57C220.642 39.8708 220.546 40.1626 220.373 40.4089C220.2 40.6551 219.958 40.845 219.678 40.9547C219.398 41.0644 219.092 41.089 218.798 41.0256C218.504 40.9621 218.235 40.8133 218.025 40.5978C217.815 40.3823 217.673 40.1097 217.617 39.8141C217.561 39.5184 217.594 39.2129 217.711 38.9356C217.828 38.6584 218.024 38.4217 218.274 38.2553C218.525 38.0889 218.819 38.0001 219.12 38C219.324 37.9999 219.527 38.0408 219.715 38.1202C219.903 38.1995 220.074 38.3158 220.216 38.4622C220.359 38.6085 220.471 38.7819 220.545 38.9722C220.62 39.1625 220.655 39.3657 220.65 39.57V39.57Z" fill="white"/>
<path d="M230.4 39.57C230.394 39.8737 230.299 40.1688 230.125 40.4183C229.952 40.6678 229.709 40.8605 229.427 40.9721C229.144 41.0838 228.835 41.1095 228.538 41.0459C228.241 40.9823 227.969 40.8323 227.757 40.6148C227.545 40.3973 227.403 40.122 227.347 39.8234C227.291 39.5249 227.324 39.2165 227.443 38.937C227.562 38.6576 227.761 38.4195 228.015 38.2528C228.269 38.086 228.566 37.9981 228.87 38C229.074 38.0013 229.276 38.0431 229.463 38.1229C229.651 38.2028 229.821 38.3191 229.963 38.4652C230.106 38.6113 230.217 38.7841 230.292 38.9738C230.367 39.1635 230.404 39.3661 230.4 39.57V39.57Z" fill="white"/>
<path d="M240.15 39.58C240.152 39.8854 240.063 40.1846 239.895 40.4393C239.726 40.6941 239.486 40.893 239.204 41.0108C238.922 41.1286 238.612 41.16 238.312 41.1009C238.012 41.0418 237.737 40.8949 237.521 40.6789C237.305 40.463 237.158 40.1876 237.099 39.888C237.04 39.5883 237.071 39.2779 237.189 38.996C237.307 38.7142 237.506 38.4738 237.761 38.3054C238.015 38.1369 238.315 38.048 238.62 38.05C239.026 38.05 239.415 38.2112 239.702 38.4981C239.989 38.7851 240.15 39.1742 240.15 39.58V39.58Z" fill="white"/>
<path d="M249.9 39.59C249.9 39.8946 249.81 40.1923 249.64 40.4456C249.471 40.6988 249.231 40.8962 248.949 41.0128C248.668 41.1293 248.358 41.1598 248.06 41.1004C247.761 41.041 247.486 40.8943 247.271 40.679C247.056 40.4636 246.909 40.1892 246.85 39.8905C246.79 39.5917 246.821 39.2821 246.937 39.0007C247.054 38.7193 247.251 38.4788 247.504 38.3096C247.758 38.1403 248.055 38.05 248.36 38.05C248.563 38.0487 248.763 38.0876 248.951 38.1645C249.138 38.2415 249.309 38.3548 249.452 38.4981C249.595 38.6414 249.709 38.8117 249.785 38.9991C249.862 39.1866 249.901 39.3874 249.9 39.59V39.59Z" fill="white"/>
<path d="M259.64 39.59C259.642 39.8955 259.553 40.1946 259.385 40.4494C259.216 40.7041 258.976 40.9031 258.694 41.0209C258.412 41.1387 258.102 41.17 257.802 41.1109C257.502 41.0518 257.227 40.9049 257.011 40.6889C256.795 40.473 256.648 40.1977 256.589 39.898C256.53 39.5983 256.561 39.2879 256.679 39.0061C256.797 38.7243 256.996 38.4839 257.251 38.3154C257.505 38.1469 257.805 38.0581 258.11 38.06C258.515 38.0627 258.903 38.2247 259.189 38.5111C259.475 38.7974 259.637 39.1851 259.64 39.59V39.59Z" fill="white"/>
<path d="M220.59 187.27C220.59 187.575 220.499 187.873 220.33 188.127C220.16 188.38 219.919 188.577 219.637 188.694C219.355 188.81 219.045 188.84 218.746 188.78C218.447 188.719 218.172 188.572 217.958 188.355C217.743 188.139 217.597 187.864 217.538 187.564C217.48 187.265 217.512 186.955 217.63 186.674C217.748 186.393 217.947 186.153 218.202 185.985C218.456 185.817 218.755 185.728 219.06 185.73C219.467 185.733 219.856 185.896 220.142 186.185C220.429 186.473 220.59 186.863 220.59 187.27V187.27Z" fill="#C7C7C7"/>
<path d="M230.34 187.27C230.342 187.575 230.253 187.874 230.085 188.128C229.917 188.383 229.677 188.582 229.396 188.7C229.115 188.818 228.805 188.85 228.506 188.792C228.206 188.733 227.931 188.587 227.715 188.372C227.498 188.157 227.351 187.883 227.29 187.584C227.23 187.285 227.26 186.975 227.376 186.693C227.493 186.411 227.69 186.17 227.943 186C228.197 185.831 228.495 185.74 228.8 185.74C229.207 185.74 229.597 185.901 229.885 186.188C230.174 186.474 230.337 186.863 230.34 187.27Z" fill="#C7C7C7"/>
<path d="M240.09 187.28C240.09 187.585 240 187.882 239.83 188.136C239.661 188.389 239.421 188.586 239.139 188.703C238.858 188.819 238.548 188.85 238.25 188.79C237.951 188.731 237.676 188.584 237.461 188.369C237.246 188.154 237.099 187.879 237.04 187.58C236.98 187.282 237.011 186.972 237.127 186.691C237.244 186.409 237.441 186.169 237.694 186C237.948 185.83 238.245 185.74 238.55 185.74C238.752 185.74 238.952 185.78 239.139 185.857C239.326 185.935 239.496 186.048 239.639 186.191C239.782 186.334 239.895 186.504 239.973 186.691C240.05 186.877 240.09 187.078 240.09 187.28V187.28Z" fill="#C7C7C7"/>
<path d="M249.83 187.29C249.83 187.595 249.739 187.893 249.57 188.147C249.4 188.4 249.159 188.597 248.877 188.714C248.595 188.83 248.285 188.86 247.986 188.8C247.687 188.739 247.412 188.592 247.198 188.375C246.983 188.159 246.837 187.884 246.778 187.584C246.72 187.285 246.752 186.975 246.87 186.694C246.988 186.413 247.187 186.173 247.442 186.005C247.696 185.837 247.995 185.748 248.3 185.75C248.707 185.753 249.096 185.916 249.382 186.205C249.669 186.493 249.83 186.883 249.83 187.29V187.29Z" fill="#C7C7C7"/>
<path d="M259.58 187.29C259.582 187.595 259.493 187.895 259.325 188.149C259.156 188.404 258.916 188.603 258.634 188.721C258.352 188.839 258.042 188.87 257.742 188.811C257.442 188.752 257.167 188.605 256.951 188.389C256.735 188.173 256.588 187.898 256.529 187.598C256.47 187.298 256.501 186.988 256.619 186.706C256.737 186.424 256.936 186.184 257.191 186.015C257.445 185.847 257.745 185.758 258.05 185.76C258.455 185.763 258.843 185.925 259.129 186.211C259.415 186.497 259.577 186.885 259.58 187.29V187.29Z" fill="#C7C7C7"/>
<path d="M257.08 208.01L220.01 207.98L218.28 194.28L258.83 194.31L257.08 208.01Z" fill="#00CDA6"/>
<path opacity="0.1" d="M258.83 194.31L257.97 200.98L218.94 199.52L218.29 194.28L258.83 194.31Z" fill="black"/>
</svg>
